<svg width="52" height="52" viewBox="0 0 52 52" fill="none" xmlns="http://www.w3.org/2000/svg">
<g clip-path="url(#clip0)">
<path d="M26.0009 27.5364C32.4397 27.5364 37.6599 21.4266 37.6599 13.8899C37.6599 3.43853 32.4399 0.24353 26.0009 0.24353C19.5616 0.24353 14.3418 3.43853 14.3418 13.8899C14.3419 21.4266 19.5617 27.5364 26.0009 27.5364Z" fill="black"/>
<path d="M51.7458 47.6222L45.8636 34.3716C45.5946 33.7653 45.1219 33.2624 44.5337 32.9561L35.4049 28.204C35.2036 28.0994 34.9599 28.1197 34.7789 28.2567C32.197 30.2096 29.1612 31.2418 26.0001 31.2418C22.8386 31.2418 19.8031 30.2096 17.2212 28.2567C17.0397 28.1197 16.7959 28.0994 16.5946 28.204L7.4665 32.9561C6.87796 33.2624 6.40582 33.765 6.13652 34.3716L0.254379 47.6222C-0.151159 48.5357 -0.0680439 49.5809 0.476783 50.4188C1.02136 51.2565 1.943 51.7565 2.94229 51.7565H49.0576C50.0569 51.7565 50.9788 51.2563 51.5234 50.4187C52.0679 49.5809 52.1513 48.5353 51.7458 47.6222Z" fill="black"/>
</g>
<defs>
<clipPath id="clip0">
<rect width="52" height="52" fill="white"/>
</clipPath>
</defs>
</svg>
